<svg width="49" height="50" viewBox="0 0 49 50" fill="none" xmlns="http://www.w3.org/2000/svg">
<g filter="url(#filter0_dd_464_5365)">
<rect x="5" y="5.74713" width="38.5057" height="38.5057" rx="3.20881" fill="#FFE55B"/>
<circle cx="23.4503" cy="16.7935" r="5.6984" stroke="black" stroke-width="2.37433"/>
<circle cx="23.4505" cy="27.2406" r="11.3968" fill="#FFE55B"/>
<path d="M33.0738 27.2815V28.3878C33.0738 30.7934 32.2485 32.7952 30.5979 34.3931C28.9473 35.9735 26.7612 36.7637 24.0394 36.7637C21.2299 36.7637 18.9033 35.8418 17.0595 33.998C15.2333 32.1367 14.3203 29.8716 14.3203 27.2025C14.3203 24.5335 15.2333 22.2771 17.0595 20.4333C18.9033 18.572 21.2124 17.6414 23.9868 17.6414C25.69 17.6414 27.2528 18.054 28.6752 18.8793C30.0975 19.687 31.1949 20.7582 31.9676 22.0927L29.8604 23.3306C29.3336 22.3297 28.5347 21.5308 27.4635 20.9338C26.41 20.3192 25.2423 20.0119 23.9604 20.0119C21.8533 20.0119 20.1237 20.7055 18.7716 22.0927C17.4195 23.4623 16.7435 25.1656 16.7435 27.2025C16.7435 29.2394 17.4195 30.9427 18.7716 32.3123C20.1412 33.682 21.906 34.3668 24.0658 34.3668C25.9095 34.3668 27.4021 33.919 28.5435 33.0235C29.6848 32.1104 30.3784 30.9339 30.6243 29.494H23.8551V27.2815H33.0738Z" fill="black"/>
<circle cx="24.4006" cy="28.1902" r="2.21604" fill="black"/>
<rect x="5.2674" y="6.01453" width="37.9709" height="37.9709" rx="2.94141" stroke="#EFB82C" stroke-opacity="0.08" stroke-width="0.534801"/>
</g>
<defs>
<filter id="filter0_dd_464_5365" x="0.186789" y="0.93392" width="48.1321" height="48.1321" filterUnits="userSpaceOnUse" color-interpolation-filters="sRGB">
<feFlood flood-opacity="0" result="BackgroundImageFix"/>
<feColorMatrix in="SourceAlpha" type="matrix" values="0 0 0 0 0 0 0 0 0 0 0 0 0 0 0 0 0 0 127 0" result="hardAlpha"/>
<feOffset dx="1.6044" dy="1.6044"/>
<feGaussianBlur stdDeviation="1.6044"/>
<feColorMatrix type="matrix" values="0 0 0 0 0 0 0 0 0 0 0 0 0 0 0 0 0 0 0.16 0"/>
<feBlend mode="normal" in2="BackgroundImageFix" result="effect1_dropShadow_464_5365"/>
<feColorMatrix in="SourceAlpha" type="matrix" values="0 0 0 0 0 0 0 0 0 0 0 0 0 0 0 0 0 0 127 0" result="hardAlpha"/>
<feOffset dx="-1.6044" dy="-1.6044"/>
<feGaussianBlur stdDeviation="1.6044"/>
<feColorMatrix type="matrix" values="0 0 0 0 1 0 0 0 0 1 0 0 0 0 1 0 0 0 0.04 0"/>
<feBlend mode="normal" in2="effect1_dropShadow_464_5365" result="effect2_dropShadow_464_5365"/>
<feBlend mode="normal" in="SourceGraphic" in2="effect2_dropShadow_464_5365" result="shape"/>
</filter>
</defs>
</svg>
