<svg width="24" height="24" viewBox="0 0 24 24" fill="none" xmlns="http://www.w3.org/2000/svg">
<path fill-rule="evenodd" clip-rule="evenodd" d="M21.9964 8.37507H17.7618C15.7911 8.37853 14.1947 9.93508 14.1911 11.8565C14.1884 13.7823 15.7867 15.3457 17.7618 15.3483L22 15.3483V15.6543C22 19.0135 19.9636 20.9999 16.5173 20.9999H7.48356C4.03644 20.9999 2 19.0135 2 15.6543L2 8.3378C2 4.97856 4.03644 2.99994 7.48356 2.99994L16.5138 2.99994C19.96 2.99994 21.9964 4.97856 21.9964 8.3378V8.37507ZM6.73955 8.36728H12.3795H12.3831H12.3902C12.8124 8.36555 13.1538 8.03014 13.152 7.6176C13.1502 7.20593 12.8053 6.87313 12.3831 6.87486H6.73955C6.31999 6.8766 5.97955 7.20853 5.97777 7.61847C5.97599 8.03014 6.31733 8.36555 6.73955 8.36728Z" fill="white"/>
<path opacity="0.4" d="M16.0374 12.2966C16.2465 13.2478 17.0805 13.917 18.0326 13.8996H21.2825C21.6787 13.8996 22 13.5715 22 13.166V10.6345C21.9992 10.2298 21.6787 9.90083 21.2825 9.89996H17.9561C16.8731 9.90344 15.9983 10.8024 16 11.9102C16 12.0399 16.0128 12.1696 16.0374 12.2966Z" fill="white"/>
<ellipse cx="18" cy="11.9" rx="1" ry="1" fill="white"/>
</svg>
